<svg width="239" height="306" viewBox="0 0 239 306" fill="none" xmlns="http://www.w3.org/2000/svg">
<path d="M90.2002 304.5C85.5002 303.7 77.7002 301.9 72.7002 300.5C63.4002 297.8 43.6002 288.6 39.2002 285L36.7002 282.9L43.6002 276.4C60.2002 260.8 85.5002 242.7 103.9 233.2L114 228L127.3 231C134.6 232.7 141.1 233.9 141.7 233.6C144 232.8 159 210.1 164.6 199L170.4 187.5L169.9 198.5C169 217.2 162.1 238 152.8 250.2C149.6 254.3 148.8 254.9 146.2 254.5C144.5 254.2 141.9 253.8 140.2 253.5C137.4 253.1 137 253.5 131.5 262.8C124.8 274.2 118.1 289.5 115.6 299.2L113.8 306L106.3 305.9C102.1 305.8 94.9002 305.2 90.2002 304.5V304.5Z" fill="white"/>
<path d="M116.2 305.6C116.2 304.4 140.4 283.4 146.5 279.3C153.2 274.8 153.5 274.7 159.3 275.4L165.2 276L168.3 271.7C175.7 261.7 183.6 241.7 186.7 226C187.6 221.3 188.6 211.4 188.9 204L189.6 190.5L190.8 197.5C195.4 223.3 192.1 254.5 182.2 278.2C179.1 285.9 179 286 171.8 289.9C161.5 295.6 148.3 300.5 136.7 302.8C125.7 305.1 116.2 306.3 116.2 305.6V305.6Z" fill="white"/>
<path d="M29.2 277.6C21.7 271.6 11.4 260.9 5.20001 252.5L0 245.5L6.40002 239.6C14.6 232.1 29 220.5 37 215.1L43.3 210.8L47.3 213.6L51.3 216.3L64.5 203.3C82.2 185.9 96.7 174.7 111.5 167L116.3 164.5L120.3 169.1L124.2 173.8L132 170C144.1 164.1 158 160 166.2 160C169.3 160.1 168.4 160.7 158.1 166.1C145.8 172.5 132.8 181.7 122.7 191.1L116.6 196.9L112.4 192.7L108.2 188.5L92.9 204C70.5 226.7 52 250.9 39.3 274.3C36.9 278.5 34.9 282 34.9 282C34.8 282 32.2 280 29.2 277.6V277.6Z" fill="white"/>
<path d="M232.3 201C229.8 192.9 225.8 184.4 220.5 176.1L217 170.7L214.5 173.2L212.1 175.7L206.8 170.6C203.9 167.8 198.7 164 195.3 162.2L188.9 159L193.8 159.6C196.5 160 201.3 161.1 204.5 162C210.1 163.8 210.3 163.8 211.3 161.8C212.3 159.9 212.4 159.9 215.3 161.8C217 162.8 222.8 167.9 228.4 173L238.4 182.3L237.7 189.4C237.4 193.3 236.5 199.2 235.8 202.5L234.6 208.5L232.3 201V201Z" fill="white"/>
<path d="M218.9 146.9L202.2 127.7L206.2 123C208.4 120.4 210.2 117.8 210.2 117.2C210.2 116.7 208.8 112.9 207.1 108.9L203.9 101.5L210.3 95.7L216.7 90L217.4 92.7C217.9 94.3 219.4 101.4 220.8 108.7L223.4 121.9L220.6 125.6L217.8 129.2L227 147.6C232.1 157.7 236.1 166 235.9 166C235.8 166 228.1 157.4 218.9 146.9V146.9Z" fill="white"/>
<path d="M135.701 143.3C135.401 141.2 134.201 137.6 133.001 135.3L131.001 131H118.401L105.701 130.9L98.8007 121.9C95.1007 116.9 92.4007 112.5 92.8007 112.1C96.4007 109 114.101 105 124.401 105H131.701L126.401 107.5C120.401 110.3 115.201 113.7 115.201 114.9C115.201 115.3 119.601 116 125.001 116.3C134.801 117 149.101 119.2 152.501 120.5C154.001 121.1 154.201 120.6 154.201 116.9C154.201 114.5 153.801 111 153.201 109.1L152.301 105.8L156.901 106.5C159.401 106.9 162.501 107.6 163.801 108.2C165.101 108.8 166.401 109.1 166.601 108.9C166.901 108.7 166.401 105.2 165.501 101.3C164.001 94.4 163.701 94 160.201 92.6C146.701 87.2 118.901 86.6 103.701 91.2C99.3007 92.6 94.8007 94.1 93.7007 94.5C89.6007 96.3 94.3007 92.1 101.701 87.5C110.501 82 122.101 77.6 132.501 76C140.001 74.8 160.301 75.1 166.401 76.6L169.201 77.2L168.601 72.6L167.901 68H178.501H189.101L190.201 72.3C190.801 74.6 191.701 78.1 192.301 80C193.901 86.1 193.701 86.3 185.201 88.9C180.701 90.2 176.901 91.7 176.601 92.1C176.201 92.7 180.901 119.3 183.801 133.3L184.401 136H173.901H163.501L162.301 141.5L161.101 147H148.701H136.401L135.701 143.3V143.3Z" fill="white"/>
<path d="M5.80011 138C6.70011 132.8 12.0001 120.4 16.6001 112.5C20.6001 105.7 35.8001 89.0002 38.0001 89.0002C38.6001 89.0002 40.6001 91.7002 42.4001 95.0002C44.2001 98.3002 45.9001 101 46.2001 101C46.5001 101 49.2001 99.2002 52.1001 97.0002C57.1001 93.2002 67.7001 86.9002 71.3001 85.5002C72.2001 85.2002 68.7001 89.2002 63.6001 94.4002C58.6001 99.7002 52.3001 106.8 49.7001 110.3L45.0001 116.7L40.3001 111.7L35.5001 106.7L31.1001 109.7C23.4001 115 13.8001 126.1 8.1001 136.1C5.3001 141.1 5.10011 141.3 5.80011 138V138Z" fill="white"/>
<path d="M17.8997 70.8C25.8997 55.6 40.6997 38.6 53.1997 30.5L59.5997 26.3L65.6997 29.6L71.8997 33L80.2997 28C97.2997 17.7 119.6 8.5 131.8 6.5L136 5.89999L140.8 12.2C143.4 15.7 145.9 18.9 146.3 19.4C146.8 19.9 151.4 17.8 156.9 14.5C162.3 11.2 170 6.7 174 4.3L181.2 0L185.8 7.10001C188.4 11 192.6 18.8 195.2 24.4C199.4 33.2 199.8 34.6 198.3 35.2C197.4 35.6 184.3 39.1 169.2 43L141.7 50.1L134.9 42.5C130.2 37.4 127.3 35 125.8 35C121.9 35 108.9 38.7 100.7 42.1C96.2997 44 88.6997 48.2 83.6997 51.5L74.4997 57.6L68.7997 53.7C63.1997 49.9 62.7997 49.8 59.0997 50.9C48.2997 54.1 23.9997 68.8 17.7997 75.8C14.0997 80 14.0997 77.9 17.8997 70.8V70.8Z" fill="white"/>
</svg>
